<?xml version="1.0" encoding="UTF-8"?>
<!DOCTYPE svg PUBLIC "-//W3C//DTD SVG 1.1//EN" "http://www.w3.org/Graphics/SVG/1.1/DTD/svg11.dtd">
<!-- Creator: CorelDRAW 2019 (64-Bit) -->
<svg xmlns="http://www.w3.org/2000/svg" xml:space="preserve" width="0.337429in" height="0.295189in" version="1.1" style="shape-rendering:geometricPrecision; text-rendering:geometricPrecision; image-rendering:optimizeQuality; fill-rule:evenodd; clip-rule:evenodd"
viewBox="0 0 6.68 5.84"
 xmlns:xlink="http://www.w3.org/1999/xlink"
 xmlns:xodm="http://www.corel.com/coreldraw/odm/2003">
 <defs>
  <style type="text/css">
   <![CDATA[
    .fil0 {fill:#827A8E;fill-rule:nonzero}
   ]]>
  </style>
 </defs>
 <g id="Layer_x0020_1">
  <metadata id="CorelCorpID_0Corel-Layer"/>
  <path class="fil0" d="M0.2 3.76l0.9 0c0.05,0 0.09,0.02 0.12,0.05 0.03,0.03 0.05,0.08 0.05,0.12l0 1.74c0,0.05 -0.02,0.09 -0.05,0.12 -0.03,0.03 -0.08,0.05 -0.12,0.05l-0.9 0c-0.05,0 -0.09,-0.02 -0.12,-0.05 -0.03,-0.03 -0.05,-0.08 -0.05,-0.12l0 -1.74c0,-0.05 0.02,-0.09 0.05,-0.12 0.03,-0.03 0.08,-0.05 0.12,-0.05zm1.61 -0.71l-0.57 -0.22c-0.01,0.04 -0.03,0.07 -0.05,0.1 -0.03,0.04 -0.06,0.08 -0.09,0.11 -0.06,0.06 -0.13,0.11 -0.21,0.14 -0.08,0.03 -0.16,0.05 -0.25,0.05 -0.09,0 -0.17,-0.02 -0.25,-0.05 -0.08,-0.03 -0.15,-0.08 -0.21,-0.14 -0.06,-0.06 -0.11,-0.13 -0.14,-0.21 -0.03,-0.08 -0.05,-0.16 -0.05,-0.25 0,-0.09 0.02,-0.17 0.05,-0.25 0.03,-0.08 0.08,-0.15 0.14,-0.21 0.06,-0.06 0.13,-0.11 0.21,-0.14 0.08,-0.03 0.16,-0.05 0.25,-0.05 0.09,0 0.17,0.02 0.25,0.05 0.08,0.03 0.15,0.08 0.21,0.14 0.05,0.05 0.09,0.1 0.12,0.16 0.03,0.05 0.05,0.11 0.06,0.17l0.57 0.22c0.01,-0.04 0.03,-0.07 0.05,-0.1 0.03,-0.04 0.06,-0.08 0.09,-0.11 0.06,-0.06 0.13,-0.11 0.21,-0.14 0.08,-0.03 0.16,-0.05 0.25,-0.05 0.09,0 0.17,0.02 0.25,0.05 0.08,0.03 0.15,0.08 0.21,0.14 0.02,0.02 0.04,0.04 0.05,0.06l0.69 -0.57c-0.01,-0.03 -0.01,-0.05 -0.02,-0.08 -0.01,-0.03 -0.01,-0.07 -0.01,-0.1 0,-0.09 0.02,-0.17 0.05,-0.25 0.03,-0.08 0.08,-0.15 0.14,-0.21 0.06,-0.06 0.13,-0.11 0.21,-0.14 0.08,-0.03 0.16,-0.05 0.25,-0.05 0.08,0 0.16,0.02 0.24,0.05 0.07,0.03 0.13,0.07 0.19,0.12l0.73 -0.5c-0,-0.02 -0.01,-0.04 -0.01,-0.06 -0,-0.03 -0.01,-0.06 -0.01,-0.08 0,-0.09 0.02,-0.17 0.05,-0.25 0.03,-0.08 0.08,-0.15 0.14,-0.21 0.06,-0.06 0.13,-0.11 0.21,-0.14 0.08,-0.03 0.16,-0.05 0.25,-0.05 0.09,0 0.17,0.02 0.25,0.05 0.08,0.03 0.15,0.08 0.21,0.14 0.06,0.06 0.11,0.13 0.14,0.21 0.03,0.08 0.05,0.16 0.05,0.25 0,0.09 -0.02,0.17 -0.05,0.25 -0.03,0.08 -0.08,0.15 -0.14,0.21 -0.06,0.06 -0.13,0.11 -0.21,0.14 -0.08,0.03 -0.16,0.05 -0.25,0.05 -0.09,0 -0.17,-0.02 -0.25,-0.05 -0.08,-0.03 -0.15,-0.08 -0.21,-0.14l-0 -0 -0.71 0.49c0.01,0.03 0.01,0.05 0.02,0.08 0.01,0.03 0.01,0.07 0.01,0.1 0,0.09 -0.02,0.17 -0.05,0.25 -0.03,0.08 -0.08,0.15 -0.14,0.21 -0.06,0.06 -0.13,0.11 -0.21,0.14 -0.08,0.03 -0.16,0.05 -0.25,0.05 -0.08,0 -0.17,-0.02 -0.24,-0.05 -0.07,-0.03 -0.13,-0.07 -0.19,-0.12l-0.75 0.62 0 0.05c0,0.09 -0.02,0.17 -0.05,0.25 -0.03,0.08 -0.08,0.15 -0.14,0.21 -0.06,0.06 -0.13,0.11 -0.21,0.14 -0.08,0.03 -0.16,0.05 -0.25,0.05 -0.09,0 -0.17,-0.02 -0.25,-0.05 -0.08,-0.03 -0.15,-0.08 -0.21,-0.14 -0.05,-0.05 -0.09,-0.1 -0.12,-0.16 -0.03,-0.05 -0.05,-0.11 -0.06,-0.17zm4.44 -2.62c-0.05,-0.05 -0.13,-0.09 -0.21,-0.09 -0.04,0 -0.08,0.01 -0.11,0.02 -0.04,0.01 -0.07,0.04 -0.1,0.06 -0.03,0.03 -0.05,0.06 -0.06,0.1 -0.01,0.03 -0.02,0.07 -0.02,0.11 0,0.04 0.01,0.08 0.02,0.11 0.01,0.04 0.04,0.07 0.06,0.1 0.03,0.03 0.06,0.05 0.1,0.06 0.03,0.01 0.07,0.02 0.11,0.02 0.04,0 0.08,-0.01 0.11,-0.02 0.04,-0.01 0.07,-0.04 0.1,-0.06 0.03,-0.03 0.05,-0.06 0.06,-0.1 0.01,-0.03 0.02,-0.07 0.02,-0.11 0,-0.04 -0.01,-0.08 -0.02,-0.11 -0.01,-0.04 -0.04,-0.07 -0.06,-0.1zm-1.78 1.13c-0.03,-0.03 -0.06,-0.05 -0.1,-0.06 -0.03,-0.01 -0.07,-0.02 -0.11,-0.02 -0.04,0 -0.08,0.01 -0.11,0.02 -0.04,0.01 -0.07,0.04 -0.1,0.06 -0.03,0.03 -0.05,0.06 -0.06,0.1 -0.01,0.03 -0.02,0.07 -0.02,0.11 0,0.04 0.01,0.08 0.02,0.11 0.01,0.04 0.04,0.07 0.06,0.1 0.03,0.03 0.06,0.05 0.1,0.06 0.03,0.01 0.07,0.02 0.11,0.02 0.04,0 0.08,-0.01 0.11,-0.02 0.04,-0.01 0.07,-0.04 0.1,-0.06 0.05,-0.05 0.09,-0.13 0.09,-0.21 0,-0.04 -0.01,-0.08 -0.02,-0.11 -0.01,-0.04 -0.04,-0.07 -0.06,-0.1zm-1.81 1.15c-0.03,-0.03 -0.06,-0.05 -0.1,-0.06 -0.03,-0.01 -0.07,-0.02 -0.11,-0.02 -0.04,0 -0.08,0.01 -0.11,0.02 -0.04,0.01 -0.07,0.04 -0.1,0.06 -0.03,0.03 -0.05,0.06 -0.06,0.1 -0.01,0.03 -0.02,0.07 -0.02,0.11 0,0.04 0.01,0.08 0.02,0.11 0.01,0.04 0.04,0.07 0.06,0.1 0.03,0.03 0.06,0.05 0.1,0.06 0.03,0.01 0.07,0.02 0.11,0.02 0.04,0 0.08,-0.01 0.11,-0.02 0.04,-0.01 0.07,-0.04 0.1,-0.06 0.03,-0.03 0.05,-0.06 0.06,-0.1 0.01,-0.03 0.02,-0.07 0.02,-0.11 0,-0.04 -0.01,-0.08 -0.02,-0.11 -0.01,-0.04 -0.04,-0.07 -0.06,-0.1zm-1.8 -0.34c-0.03,-0.03 -0.06,-0.05 -0.1,-0.06 -0.03,-0.01 -0.07,-0.02 -0.11,-0.02 -0.04,0 -0.08,0.01 -0.11,0.02 -0.04,0.01 -0.07,0.04 -0.1,0.06 -0.03,0.03 -0.05,0.06 -0.06,0.1 -0.01,0.03 -0.02,0.07 -0.02,0.11 0,0.04 0.01,0.08 0.02,0.11 0.01,0.04 0.04,0.07 0.06,0.1 0.03,0.03 0.06,0.05 0.1,0.06 0.03,0.01 0.07,0.02 0.11,0.02 0.04,0 0.08,-0.01 0.11,-0.02 0.04,-0.01 0.07,-0.04 0.1,-0.06 0.05,-0.05 0.09,-0.13 0.09,-0.21 0,-0.04 -0.01,-0.08 -0.02,-0.11 -0.01,-0.04 -0.04,-0.07 -0.06,-0.1zm4.74 -0.63l0.9 0c0.05,0 0.09,0.02 0.12,0.05 0.03,0.03 0.05,0.08 0.05,0.12l0 3.74c0,0.05 -0.02,0.09 -0.05,0.12 -0.03,0.03 -0.08,0.05 -0.12,0.05l-0.9 0c-0.05,0 -0.09,-0.02 -0.12,-0.05 -0.03,-0.03 -0.05,-0.08 -0.05,-0.12l0 -3.74c0,-0.05 0.02,-0.09 0.05,-0.12 0.03,-0.03 0.08,-0.05 0.12,-0.05zm0.72 0.35l-0.55 0 0 3.39 0.55 0 0 -3.39zm-2.5 0.79l0.9 0c0.05,0 0.09,0.02 0.12,0.05 0.03,0.03 0.05,0.08 0.05,0.12l0 2.6c0,0.05 -0.02,0.09 -0.05,0.12 -0.03,0.03 -0.08,0.05 -0.12,0.05l-0.9 0c-0.05,0 -0.09,-0.02 -0.12,-0.05 -0.03,-0.03 -0.05,-0.08 -0.05,-0.12l0 -2.6c0,-0.05 0.02,-0.09 0.05,-0.12 0.03,-0.03 0.08,-0.05 0.12,-0.05zm0.72 0.35l-0.55 0 0 2.25 0.55 0 0 -2.25zm-2.53 0.83l0.9 0c0.05,0 0.09,0.02 0.12,0.05 0.03,0.03 0.05,0.08 0.05,0.12l0 1.42c0,0.05 -0.02,0.09 -0.05,0.12 -0.03,0.03 -0.08,0.05 -0.12,0.05l-0.9 0c-0.05,0 -0.09,-0.02 -0.12,-0.05 -0.03,-0.03 -0.05,-0.08 -0.05,-0.12l0 -1.42c0,-0.05 0.02,-0.09 0.05,-0.12 0.03,-0.03 0.08,-0.05 0.12,-0.05zm0.72 0.35l-0.55 0 0 1.07 0.55 0 0 -1.07zm-1.8 -0.32l-0.55 0 0 1.39 0.55 0 0 -1.39z"/>
 </g>
</svg>
