<?xml version="1.0" encoding="UTF-8"?>
<!DOCTYPE svg PUBLIC "-//W3C//DTD SVG 1.1//EN" "http://www.w3.org/Graphics/SVG/1.1/DTD/svg11.dtd">
<!-- Creator: CorelDRAW 2019 (64-Bit) -->
<svg xmlns="http://www.w3.org/2000/svg" xml:space="preserve" width="0.354087in" height="0.261146in" version="1.1" style="shape-rendering:geometricPrecision; text-rendering:geometricPrecision; image-rendering:optimizeQuality; fill-rule:evenodd; clip-rule:evenodd"
viewBox="0 0 7.36 5.43"
 xmlns:xlink="http://www.w3.org/1999/xlink"
 xmlns:xodm="http://www.corel.com/coreldraw/odm/2003">
 <defs>
  <style type="text/css">
   <![CDATA[
    .fil0 {fill:#827A8E;fill-rule:nonzero}
   ]]>
  </style>
 </defs>
 <g id="Layer_x0020_1">
  <metadata id="CorelCorpID_0Corel-Layer"/>
  <path class="fil0" d="M0.22 0l1.92 0c0.08,0 0.15,0.04 0.18,0.1l0.55 0.75 2.61 0c0.12,0 0.21,0.1 0.21,0.21l0 1.1 1.34 0c0.05,0 0.09,0.01 0.13,0.03 0.04,0.02 0.08,0.04 0.11,0.07 0.01,0.01 0.03,0.03 0.04,0.05 0.01,0.02 0.02,0.04 0.03,0.06 0.05,0.1 0.01,0.23 -0.05,0.37 -0.11,0.24 -1.31,2.52 -1.39,2.6 -0.03,0.03 -0.07,0.06 -0.11,0.07 -0.04,0.02 -0.09,0.03 -0.13,0.03l-5.3 0c-0.05,0 -0.09,-0.01 -0.13,-0.03 -0.04,-0.02 -0.08,-0.04 -0.11,-0.07 -0.03,-0.03 -0.06,-0.07 -0.08,-0.11 -0.01,-0.02 -0.01,-0.04 -0.02,-0.06l-0.01 0.01c-0,-0.01 -0,-0.01 -0,-0.02l0 -0.02c-0,-0.02 -0,-0.03 -0,-0.05l0 -0.01 0 -0.02c0,-0.01 0,-0.01 0,-0.02 -0,-0 -0,-0.01 -0,-0.01l-0 0 0 -4.8c0,-0.12 0.1,-0.21 0.21,-0.21zm6.51 2.87c0.15,-0.25 0.17,-0.28 -0.23,-0.28l-4.74 0c-0.11,0.18 -0.7,1.33 -1.07,2.04 -0.07,0.14 -0.14,0.27 -0.19,0.36l4.83 0c0.3,0 0.26,0 0.33,-0.14 0.03,-0.05 0.06,-0.1 0.09,-0.17l0.01 -0.02 0.97 -1.82c0,-0.01 -0.03,0.06 -0.01,0.02zm-4.7 -2.44l-1.6 0 0 3.72c0.4,-0.77 0.94,-1.81 1.02,-1.88 0.03,-0.03 0.07,-0.06 0.11,-0.07 0.04,-0.02 0.09,-0.02 0.13,-0.02l0.03 0 3.54 0 0 -0.89 -2.5 0 0 -0c-0.07,-0 -0.13,-0.03 -0.17,-0.09l-0.56 -0.76z"/>
 </g>
</svg>
