<?xml version="1.0" encoding="utf-8"?>
<!-- Generator: Adobe Illustrator 25.4.1, SVG Export Plug-In . SVG Version: 6.00 Build 0)  -->
<svg version="1.1" id="Calque_1" xmlns:xodm="http://www.corel.com/coreldraw/odm/2003"
	 xmlns="http://www.w3.org/2000/svg" xmlns:xlink="http://www.w3.org/1999/xlink" x="0px" y="0px" viewBox="0 0 25.8 17.7"
	 style="enable-background:new 0 0 25.8 17.7;" xml:space="preserve">
<style type="text/css">
	.st0{fill-rule:evenodd;clip-rule:evenodd;fill:#FF8B37;}
</style>
<g id="Layer_x0020_1">
	<path class="st0" d="M16.8,0h3.5h0h4.6c0.5,0,1,0.4,1,1l0,0c0,0.5-0.4,1-1,1h-4.6h0h-3.5h0h-3h0h-1.5h0h-3h0H5.7h0H1
		c-0.5,0-1-0.4-1-1l0,0c0-0.5,0.4-1,1-1h4.6h0h3.5h0h3h0h1.5h0H16.8L16.8,0L16.8,0z M16.8,15.7h3.5h0h4.6c0.5,0,1,0.4,1,1l0,0
		c0,0.5-0.4,1-1,1h-4.6h0h-3.5h0h-3h0h-1.5h0h-3h0H5.7h0H1c-0.5,0-1-0.4-1-1l0,0c0-0.5,0.4-1,1-1h4.6h0h3.5h0h3h0h1.5h0H16.8
		L16.8,15.7L16.8,15.7z M5.6,7.9h1.2h2.3h1.2h0h3.4h0h1.1c0.5,0,1,0.4,1,1l0,0c0,0.5-0.4,1-1,1h-1.1h0h-3.4h0H9.1H6.8H5.6h0H2.1h0H1
		c-0.5,0-1-0.4-1-1l0,0c0-0.5,0.4-1,1-1h1.1h0H5.6C5.6,7.9,5.6,7.9,5.6,7.9z"/>
</g>
</svg>
