<?xml version="1.0" encoding="utf-8"?>
<!-- Generator: Adobe Illustrator 25.3.0, SVG Export Plug-In . SVG Version: 6.00 Build 0)  -->
<svg version="1.1" id="Calque_1" xmlns="http://www.w3.org/2000/svg" xmlns:xlink="http://www.w3.org/1999/xlink" x="0px" y="0px"
	 viewBox="0 0 512 512" style="enable-background:new 0 0 512 512;" xml:space="preserve">
<style type="text/css">
	.st0{fill:#827A8E;}
	.st1{display:none;}
	.st2{display:inline;}
	.st3{fill:#6700FF;}
</style>
<g id="Calque_3_1_">
	<g>
		<g id="Calque_3_3_">
			<g>
				<g>
					<path class="st0" d="M440,75.1C393,27.8,326.6,0,260.2,0S127.3,27.8,80.3,75.1S0,189.2,0,256s27.7,133.6,74.7,180.9
						S188.2,512,254.6,512s132.8-27.8,179.9-75.1S512,322.8,512,256S484.3,122.4,440,75.1z M110.7,431.3
						c8.3-75.1,72-130.8,146.7-130.8c38.7,0,74.7,13.9,102.4,41.7c22.1,22.3,38.7,52.9,41.5,86.3c-38.7,33.4-88.6,52.9-143.9,52.9
						S149.4,461.9,110.7,431.3z M257.4,269.9c-41.5,0-77.5-36.2-77.5-77.9s36-77.9,77.5-77.9s77.5,36.2,77.5,77.9
						C332.1,236.5,298.9,269.9,257.4,269.9z M426.2,403.5c-8.3-30.6-22.1-58.4-47-83.5c-19.4-19.5-38.7-33.4-63.7-41.7
						c27.7-19.5,47-52.9,47-89c0-58.4-47-108.5-107.9-108.5S149.4,133.6,149.4,192c0,36.2,19.4,69.6,47,89
						c-22.1,8.3-41.5,19.5-58.1,36.2c-24.9,22.3-41.5,52.9-49.8,86.3c-33.2-39-55.4-91.8-55.4-147.5
						c0-125.2,102.4-225.4,224.2-225.4s224.2,103,224.2,225.4C481.6,314.4,459.4,364.5,426.2,403.5z"/>
				</g>
			</g>
		</g>
	</g>
</g>
<g id="Calque_2_1_" class="st1">
	<g class="st2">
		<g>
			<path class="st3" d="M15.8,2.7C14.1,1,11.8,0,9.3,0S4.5,1,2.7,2.7S0,6.7,0,9.2s1,4.8,2.7,6.5s4,2.7,6.5,2.7s4.8-1,6.5-2.7
				s2.7-4,2.7-6.5S17.5,4.4,15.8,2.7z M4,15.4c0.3-2.6,2.6-4.6,5.3-4.6c1.4,0,2.7,0.5,3.7,1.5c0.8,0.8,1.4,1.9,1.5,3.1
				c-1.4,1.2-3.2,1.9-5.2,1.9S5.5,16.6,4,15.4z M9.3,9.7c-1.5,0-2.8-1.3-2.8-2.8s1.3-2.8,2.8-2.8s2.8,1.3,2.8,2.8
				C12,8.4,10.8,9.7,9.3,9.7z M15.4,14.5c-0.3-1.1-0.8-2.1-1.7-2.9c-0.7-0.7-1.4-1.2-2.3-1.5c1-0.7,1.7-1.9,1.7-3.2
				c0-2.1-1.7-3.9-3.9-3.9S5.4,4.8,5.4,6.9c0,1.3,0.7,2.5,1.7,3.2c-0.8,0.3-1.5,0.7-2.1,1.3c-0.9,0.8-1.5,1.9-1.8,3.1
				c-1.2-1.4-2-3.3-2-5.3c0-4.5,3.6-8.1,8.1-8.1s8.1,3.6,8.1,8.1C17.4,11.2,16.6,13.1,15.4,14.5z"/>
		</g>
	</g>
</g>
</svg>
