<?xml version="1.0" encoding="UTF-8"?>
<!DOCTYPE svg PUBLIC "-//W3C//DTD SVG 1.1//EN" "http://www.w3.org/Graphics/SVG/1.1/DTD/svg11.dtd">
<!-- Creator: CorelDRAW 2019 (64-Bit) -->
<svg xmlns="http://www.w3.org/2000/svg" xml:space="preserve" width="0.38461in" height="0.332394in" version="1.1" style="shape-rendering:geometricPrecision; text-rendering:geometricPrecision; image-rendering:optimizeQuality; fill-rule:evenodd; clip-rule:evenodd"
viewBox="0 0 8.66 7.48"
 xmlns:xlink="http://www.w3.org/1999/xlink"
 xmlns:xodm="http://www.corel.com/coreldraw/odm/2003">
 <defs>
  <style type="text/css">
   <![CDATA[
    .fil0 {fill:#827A8E;fill-rule:nonzero}
   ]]>
  </style>
 </defs>
 <g id="Layer_x0020_1">
  <metadata id="CorelCorpID_0Corel-Layer"/>
  <path class="fil0" d="M4.33 0c1.15,0 2.2,0.15 2.96,0.4 0.85,0.27 1.37,0.68 1.37,1.17l0 3.8 0 0 0 0 -0 0.02 0 0 -0 0c-0.01,0.27 -0.18,0.52 -0.47,0.72 -0.19,0.13 -0.44,0.26 -0.74,0.36l-0 0 -0.02 0.01 -0.02 0.01 -0 0 -0.02 0.01 -0 0c-0.03,0.01 -0.06,0.02 -0.09,0.03 -0.08,0.03 -0.16,0.05 -0.25,0.07l-0.01 0 -0.01 0 -0.28 0.08 0 -0.01 0 -0.52 0 -1.58c-0.22,-0.05 -0.46,-0.1 -0.72,-0.14 -0.05,-0.06 -0.1,-0.12 -0.16,-0.18 -0.09,-0.08 -0.18,-0.15 -0.29,-0.21l-0 -0c0.03,-0.05 0.05,-0.1 0.07,-0.16l0.01 -0.02c0.39,0.04 0.76,0.1 1.09,0.18l0 -1.17 0 -0.52 0 -0c0.05,-0.01 0.09,-0.02 0.14,-0.04l0.01 -0 0.01 -0 0.04 -0.01c0.41,-0.11 0.74,-0.25 0.96,-0.41 0.16,-0.11 0.25,-0.22 0.26,-0.32l0 -0 0 -0c0,-0.24 -0.39,-0.48 -1.01,-0.68 -0.71,-0.23 -1.7,-0.37 -2.8,-0.37 -1.1,0 -2.09,0.14 -2.8,0.37 -0.63,0.2 -1.01,0.44 -1.01,0.68l0 0 0 0c0.01,0.1 0.1,0.21 0.26,0.32 0.22,0.15 0.55,0.29 0.96,0.41l0.04 0.01 0.01 0 0.01 0c0.05,0.01 0.09,0.02 0.14,0.04l0 0 0 0.52 0 1.17c0.33,-0.08 0.7,-0.14 1.09,-0.18l0.01 0.02c0.02,0.05 0.05,0.11 0.07,0.16l-0 0c-0.1,0.06 -0.2,0.13 -0.29,0.21 -0.06,0.06 -0.11,0.12 -0.16,0.18 -0.26,0.04 -0.5,0.09 -0.72,0.14l0 1.58 0 0.52 0 0.01 -0.28 -0.08 -0.01 -0 -0.01 -0c-0.08,-0.02 -0.17,-0.05 -0.25,-0.07 -0.03,-0.01 -0.06,-0.02 -0.09,-0.03l-0 -0 -0.02 -0.01 -0 -0 -0.02 -0.01 -0.02 -0.01 -0 -0c-0.3,-0.11 -0.55,-0.23 -0.74,-0.36 -0.3,-0.21 -0.46,-0.45 -0.47,-0.72l-0 -0 0 -0 -0 -0.02 0 -0 0 0 0 -3.8c0,-0.48 0.52,-0.9 1.37,-1.17 0.76,-0.24 1.81,-0.4 2.96,-0.4zm0 2.22c0.32,0 0.61,0.13 0.82,0.34 0.21,0.21 0.34,0.5 0.34,0.82 0,0.3 -0.12,0.58 -0.31,0.79 0.19,0.05 0.37,0.15 0.51,0.28 0.22,0.21 0.36,0.49 0.36,0.8l0 1.69c0,0.15 -0.07,0.29 -0.17,0.39l0 0c-0.1,0.09 -0.24,0.15 -0.4,0.15l-2.29 0c-0.15,0 -0.29,-0.06 -0.4,-0.15l0 -0c-0.11,-0.1 -0.17,-0.24 -0.17,-0.39l0 -1.69c0,-0.31 0.14,-0.6 0.36,-0.8 0.14,-0.13 0.31,-0.23 0.51,-0.28 -0.19,-0.21 -0.31,-0.48 -0.31,-0.79 0,-0.32 0.13,-0.61 0.34,-0.82 0.21,-0.21 0.5,-0.34 0.82,-0.34zm0.51 2.31l-0.51 0 -0.51 0c-0.22,0 -0.42,0.08 -0.56,0.22 -0.14,0.13 -0.23,0.31 -0.23,0.5l0 1.69c0,0.03 0.01,0.06 0.04,0.08l0 -0c0.03,0.03 0.07,0.04 0.12,0.04l2.29 0c0.05,0 0.09,-0.02 0.12,-0.04l0 0c0.02,-0.02 0.04,-0.05 0.04,-0.08l0 -1.69c0,-0.19 -0.09,-0.37 -0.23,-0.5 -0.14,-0.13 -0.34,-0.22 -0.56,-0.22zm0.01 -1.68c-0.13,-0.13 -0.32,-0.22 -0.52,-0.22 -0.2,0 -0.39,0.08 -0.52,0.22 -0.13,0.13 -0.22,0.32 -0.22,0.52 0,0.2 0.08,0.39 0.22,0.52 0.13,0.13 0.32,0.22 0.52,0.22 0.2,0 0.39,-0.08 0.52,-0.22 0.13,-0.13 0.22,-0.32 0.22,-0.52 0,-0.2 -0.08,-0.39 -0.22,-0.52zm2.6 -0.18l-0.01 0 -0.01 0 -0.02 0.01 -0.02 0.01 -0 0 -0.02 0.01 -0.02 0.01 -0.02 0.01 -0.02 0.01 -0.05 0.02 -0.03 0.01 0 3.26c0.26,-0.09 0.48,-0.19 0.63,-0.31 0.16,-0.11 0.25,-0.22 0.26,-0.32l0 -0 0 -0 0 0 0 -0.77 0 -2.25c-0.18,0.12 -0.42,0.24 -0.69,0.33zm-6.05 0.07l-0.03 -0.01 -0.05 -0.02 -0.02 -0.01 -0.02 -0.01 -0.02 -0.01 -0.02 -0.01 -0 -0 -0.02 -0.01 -0.02 -0.01 -0.01 -0 -0.01 -0c-0.27,-0.1 -0.51,-0.21 -0.69,-0.33l0 2.25 0 0 0 0.77 0 0.01 0 0 0 0 0 0c0.01,0.1 0.1,0.21 0.26,0.32 0.16,0.11 0.37,0.21 0.63,0.31l0 -3.26z"/>
 </g>
</svg>
