<?xml version="1.0" encoding="utf-8"?>
<!-- Generator: Adobe Illustrator 25.3.0, SVG Export Plug-In . SVG Version: 6.00 Build 0)  -->
<svg version="1.1" id="Calque_1" xmlns:svgjs="http://svgjs.com/svgjs"
	 xmlns="http://www.w3.org/2000/svg" xmlns:xlink="http://www.w3.org/1999/xlink" x="0px" y="0px" viewBox="0 0 512.4 365"
	 style="enable-background:new 0 0 512.4 365;" xml:space="preserve">
<style type="text/css">
	.st0{fill:#827A8E;}
	.st1{display:none;fill:#827A8E;}
	.st2{fill:none;}
	.st3{font-family:'LatinWide';}
	.st4{font-size:100px;}
</style>
<g>
	<path class="st0" d="M154.4,323.8c62.2,0,112.9-50.6,112.9-112.9S216.7,98.1,154.4,98.1S41.6,148.7,41.6,210.9
		S92.2,323.8,154.4,323.8z M154.4,118.1c51.2,0,92.9,41.7,92.9,92.9s-41.7,92.9-92.9,92.9s-92.9-41.7-92.9-92.9
		S103.2,118.1,154.4,118.1z"/>
	<path class="st0" d="M155.1,364.5c85.5,0,155.1-69.1,155.1-154s-69.6-154-155.1-154S0,125.6,0,210.5S69.6,364.5,155.1,364.5z
		 M160.3,76.6c69.7,2.6,128.8,61.5,128.8,133.9c0,73.6-61.2,134-134,134c-70.4,0-128.8-56.3-133.7-124.2
		C16,142.8,82.1,73.7,160.3,76.6z"/>
	<path class="st0" d="M502.4,115H447V77.5h30.3c5.5,0,10-4.5,10-10V10c0-5.5-4.5-10-10-10h-286c-5.5,0-10,4.5-10,10v46.9
		c0,0-22.5,0-26.9,0c-84.9,0-154,69.1-154,154c0,9,0.8,18.1,2.4,26.9c1,5.4,6.1,9.1,11.6,8.1c5.4-1,9.1-6.1,8.1-11.6
		c-1.4-7.7-2.1-15.6-2.1-23.5c0-73.9,60.1-134,134-134c11.4,0,22.7,1.4,33.7,4.3c57.6,15,100.3,67.5,100.3,129.7
		c0,70.4-54.6,128.3-123.6,133.6c-3.5,0.3-6.9,0.4-10.4,0.4c-34.8,0-67.8-13.3-92.9-37.4c-4-3.8-10.3-3.7-14.1,0.3
		c-3.8,4-3.7,10.3,0.3,14.1c9.4,9,19.7,16.7,30.8,23H39.2c-5.5,0-10,4.5-10,10s4.5,10,10,10h115.1c0,0,0.1,0,0.1,0
		c0,0,259.7,0,259.7,0h69.5c5.5,0,10-4.5,10-10s-4.5-10-10-10h-59.6v-37.5h53.3c5.5,0,10-4.5,10-10v-105h15.1c5.5,0,10-4.5,10-10
		V125C512.4,119.5,508,115,502.4,115z M201.4,20h266v37.5h-80.9c-5.5,0-10,4.5-10,10v0c0,5.5,4.5,10,10,10H427V115H274.9
		c-12.2-15.3-27-27.9-43.6-37.5h64.9c5.5,0,10-4.5,10-10c0-0.3,0-0.7-0.1-1c-0.5-5-4.8-9-9.9-9h-94.9V20z M404.1,344.9H230.4
		c16.8-9.6,31.9-22.4,44.1-37.5h129.6V344.9z M467.3,287.5H288.1c3-5.3,5.7-10.8,8.1-16.4c2.9-6.8,5.3-13.9,7.2-21.1h163.9V287.5z
		 M467.3,230h-160c1.5-12.4,1.6-25.1,0.1-37.5h160V230z M492.4,172.5H303.6c-3.4-13.2-8.4-25.7-15.1-37.5h204V172.5z"/>
	<path class="st1" d="M31.5,288.5c5-2.1,7.5-8,5.4-13.1c-2.1-5-8-7.5-13.1-5.4c-5,2.1-7.5,8-5.4,13.1
		C20.5,288.1,26.4,290.6,31.5,288.5z"/>
	<rect x="288.5" y="57.5" class="st0" width="110.9" height="20"/>
	<rect x="94.9" y="157.9" class="st2" width="120.4" height="137.2"/>
	<text transform="matrix(1 0 0 1.5 95.4535 261.5211)" class="st0 st3 st4">T</text>
</g>
</svg>
