<?xml version="1.0" encoding="UTF-8"?>
<!DOCTYPE svg PUBLIC "-//W3C//DTD SVG 1.1//EN" "http://www.w3.org/Graphics/SVG/1.1/DTD/svg11.dtd">
<!-- Creator: CorelDRAW 2019 (64-Bit) -->
<svg xmlns="http://www.w3.org/2000/svg" xml:space="preserve" width="0.271425in" height="0.30552in" version="1.1" style="shape-rendering:geometricPrecision; text-rendering:geometricPrecision; image-rendering:optimizeQuality; fill-rule:evenodd; clip-rule:evenodd"
viewBox="0 0 4.34 4.89"
 xmlns:xlink="http://www.w3.org/1999/xlink"
 xmlns:xodm="http://www.corel.com/coreldraw/odm/2003">
 <defs>
  <style type="text/css">
   <![CDATA[
    .fil0 {fill:#827A8E;fill-rule:nonzero}
   ]]>
  </style>
 </defs>
 <g id="Layer_x0020_1">
  <metadata id="CorelCorpID_0Corel-Layer"/>
  <path class="fil0" d="M1.52 3.16l-0 1.35c0,0.01 0,0.02 0,0.02 0,0.01 0.01,0.01 0.01,0.02 0.01,0.01 0.01,0.01 0.02,0.01 0.01,0 0.02,0 0.02,0l2.39 0c0.01,0 0.02,-0 0.02,-0 0.01,-0 0.01,-0.01 0.02,-0.01 0.01,-0.01 0.01,-0.01 0.01,-0.02 0,-0.01 0,-0.02 0,-0.02l0 -1.34c0,-0.14 -0.03,-0.26 -0.08,-0.38 -0.05,-0.12 -0.13,-0.23 -0.22,-0.33 -0.09,-0.09 -0.2,-0.17 -0.33,-0.22 -0.12,-0.05 -0.25,-0.08 -0.38,-0.08l-0.51 0c-0.14,0 -0.26,0.03 -0.38,0.08 -0.12,0.05 -0.23,0.13 -0.33,0.22 -0.09,0.09 -0.17,0.2 -0.22,0.32 -0.05,0.12 -0.08,0.24 -0.08,0.37zm0.06 1.72l-1.26 0c-0.04,0 -0.08,-0.01 -0.12,-0.02 -0.04,-0.02 -0.08,-0.04 -0.1,-0.07 -0.03,-0.03 -0.05,-0.07 -0.07,-0.1 -0.02,-0.04 -0.02,-0.08 -0.02,-0.12l0 -1.04c0,-0.14 0.03,-0.28 0.08,-0.4 0.05,-0.13 0.13,-0.24 0.23,-0.34 0.05,-0.05 0.12,-0.1 0.18,-0.15 0.05,-0.03 0.11,-0.06 0.17,-0.09l-0.01 -0.01c-0.08,-0.08 -0.14,-0.17 -0.18,-0.28 -0.04,-0.1 -0.06,-0.21 -0.06,-0.32 0,-0.11 0.02,-0.22 0.06,-0.32 0.04,-0.1 0.11,-0.2 0.18,-0.28 0.08,-0.08 0.17,-0.14 0.28,-0.18 0.1,-0.04 0.21,-0.06 0.32,-0.06 0.1,0 0.19,0.02 0.28,0.05 0.07,0.03 0.14,0.06 0.2,0.1l-0.01 -0.05c-0,-0.04 -0.01,-0.07 -0.01,-0.11 0,-0.14 0.03,-0.28 0.08,-0.41 0.05,-0.13 0.13,-0.25 0.23,-0.35 0.1,-0.1 0.22,-0.18 0.35,-0.23 0.13,-0.05 0.26,-0.08 0.41,-0.08 0.14,0 0.28,0.03 0.41,0.08 0.13,0.05 0.25,0.13 0.35,0.23 0.1,0.1 0.18,0.22 0.23,0.35 0.05,0.13 0.08,0.26 0.08,0.41 0,0.14 -0.03,0.28 -0.08,0.41 -0.05,0.13 -0.13,0.25 -0.23,0.35 -0.02,0.02 -0.05,0.05 -0.07,0.07l-0.04 0.03c0.09,0.03 0.18,0.07 0.27,0.12 0.1,0.06 0.19,0.13 0.27,0.21 0.12,0.12 0.22,0.27 0.29,0.43 0.06,0.15 0.1,0.32 0.1,0.5l0 1.34c0,0.05 -0.01,0.1 -0.03,0.14 -0.02,0.05 -0.05,0.09 -0.08,0.12 -0.03,0.03 -0.08,0.06 -0.12,0.08 -0.04,0.02 -0.09,0.03 -0.14,0.03l-2.39 0zm-0.37 -1.77c0,-0.06 0.01,-0.12 0.02,-0.18 0.01,-0.05 0.02,-0.1 0.04,-0.15l-0.22 0c-0.1,0 -0.2,0.02 -0.28,0.06 -0.09,0.04 -0.17,0.09 -0.24,0.16 -0.07,0.07 -0.12,0.15 -0.16,0.24 -0.04,0.09 -0.06,0.18 -0.06,0.28l0 1.04 0 0 0 0 0 0 0 0 0.9 0c-0.06,-0.42 -0.02,-1.03 -0,-1.46zm0.23 -0.68c0.02,-0.03 0.05,-0.07 0.07,-0.1 0.03,-0.03 0.06,-0.06 0.08,-0.09 0.02,-0.02 0.05,-0.05 0.08,-0.07 0.02,-0.02 0.05,-0.04 0.08,-0.06l0.01 -0.03 0.01 -0.04c0,-0.02 0.01,-0.04 0.01,-0.06 0,-0.02 0,-0.04 0,-0.06 0,-0.07 -0.01,-0.14 -0.04,-0.21 -0.03,-0.07 -0.07,-0.13 -0.12,-0.17 -0.05,-0.05 -0.11,-0.09 -0.17,-0.12 -0.06,-0.03 -0.13,-0.04 -0.21,-0.04 -0.07,0 -0.14,0.01 -0.21,0.04 -0.07,0.03 -0.13,0.07 -0.18,0.12 -0.05,0.05 -0.09,0.11 -0.12,0.17 -0.03,0.06 -0.04,0.13 -0.04,0.21 0,0.07 0.01,0.14 0.04,0.21 0.03,0.07 0.07,0.13 0.12,0.17 0.05,0.05 0.11,0.09 0.17,0.12 0.06,0.03 0.13,0.04 0.21,0.04 0.02,0 0.04,-0 0.06,-0 0.02,-0 0.04,-0.01 0.06,-0.01l0.04 -0.01 0.03 -0.01zm1.88 -1.91c-0.07,-0.07 -0.15,-0.13 -0.25,-0.16 -0.09,-0.04 -0.19,-0.06 -0.29,-0.06 -0.1,0 -0.2,0.02 -0.29,0.06 -0.09,0.04 -0.18,0.09 -0.25,0.16 -0.07,0.07 -0.13,0.15 -0.16,0.25 -0.04,0.09 -0.06,0.19 -0.06,0.29 0,0.1 0.02,0.2 0.06,0.29 0.04,0.09 0.09,0.18 0.16,0.25 0.07,0.07 0.15,0.13 0.25,0.16 0.09,0.04 0.19,0.06 0.29,0.06 0.1,0 0.2,-0.02 0.29,-0.06 0.09,-0.04 0.18,-0.09 0.25,-0.16 0.07,-0.07 0.13,-0.15 0.16,-0.25 0.04,-0.09 0.06,-0.19 0.06,-0.29 0,-0.1 -0.02,-0.2 -0.06,-0.29 -0.04,-0.09 -0.09,-0.18 -0.16,-0.25z"/>
 </g>
</svg>
